# xmcd
#
# Track frame offsets:
#	150
#	16519
#	32446
#	47991
#	55518
#	72541
#	90417
#	108520
#	125368
#	149062
#
# Disc length: 2341 seconds
#
# Revision: 0
# Processed by: cddbd v1.5.2PL0 Copyright (c) Steve Scherf et al.
# Submitted via: audiograbber 1.83.01
#
DISCID=8109230a
DTITLE=Various Artist - Born 2 Burn
DYEAR=1998
DGENRE=Rock
TTITLE0=Steve Vansak - I Reach Out
TTITLE1=Gary McArthur - Actress
TTITLE2=The E.P.s - Texas Girls
TTITLE3=Dug Fir - What if
TTITLE4=a.k.a. Stevens - Magdalena
TTITLE5=EZ and The Heat - Love Games
TTITLE6=Mr. Bob - Mrs. Levingston
TTITLE7=June Rich - Where 2 Now
TTITLE8=Gary Leuenberger - Born 2 Burn
TTITLE9=N/A - Data Track
EXTD=
EXTT0=
EXTT1=
EXTT2=
EXTT3=
EXTT4=
EXTT5=
EXTT6=
EXTT7=
EXTT8=
EXTT9=
PLAYORDER=
